Results
version=1
nRows=10
nColumns=27
inDegrees=yes
endheader
time	r_x	r_y	r_z	t_x	t_y	t_z	sternoclavicular_r2	sternoclavicular_r3	unrotscap_r3	unrotscap_r2	acromioclavicular_r2	acromioclavicular_r3	acromioclavicular_r1	unrothum_r1	unrothum_r3	unrothum_r2	elv_angle	shoulder_elv	shoulder1_r2	shoulder_rot	elbow_flexion	pro_sup	deviation	flexion	wrist_hand_r1	wrist_hand_r3
      2.50000000	     90.00000023	      0.00000039	     10.00000002	     -0.36456733	      0.37051650	      0.29076354	    -11.65401721	      4.93609165	     -4.93609165	     11.65401721	     -2.35970142	     19.07027686	      8.57195820	     -8.57195820	    -19.07027686	      2.35970142	     71.16748709	     48.15698795	    -71.16748709	      6.52498125	     23.58401806	     22.77452157	     -0.00000052	      0.00000000	     -0.00000071	      0.00000000
      2.50500000	     90.00000023	      0.00000039	     10.00000002	     -0.36454801	      0.37056732	      0.29073333	    -11.66111366	      4.93909737	     -4.93909737	     11.66111366	     -2.36113831	     19.08188928	      8.57717791	     -8.57717791	    -19.08188928	      2.36113831	     71.23884559	     48.18631207	    -71.23884559	      6.70273272	     23.40849088	     21.59035296	     -0.00000052	      0.00000000	     -0.00000071	      0.00000000
      2.51000000	     90.00000023	      0.00000039	     10.00000002	     -0.36459476	      0.37062210	      0.29081242	    -11.65277588	      4.93556588	     -4.93556588	     11.65277588	     -2.35945008	     19.06824560	      8.57104517	     -8.57104517	    -19.06824560	      2.35945008	     71.16283531	     48.15185854	    -71.16283531	      6.61584618	     23.54832591	     22.36805758	     -0.00000052	      0.00000000	     -0.00000071	      0.00000000
      2.51500000	     90.00000023	      0.00000039	     10.00000002	     -0.36445850	      0.37068378	      0.29076283	    -11.66225115	      4.93957916	     -4.93957916	     11.66225115	     -2.36136863	     19.08375064	      8.57801457	     -8.57801457	    -19.08375064	      2.36136863	     71.24604728	     48.19101245	    -71.24604728	      6.24065762	     23.55323283	     23.14493013	     -0.00000052	      0.00000000	     -0.00000071	      0.00000000
      2.52000000	     90.00000023	      0.00000039	     10.00000002	     -0.36463024	      0.37050066	      0.29081056	    -11.64993433	      4.93436233	     -4.93436233	     11.64993433	     -2.35887472	     19.06359577	      8.56895510	     -8.56895510	    -19.06359577	      2.35887472	     71.18058053	     48.14011660	    -71.18058053	      6.55488371	     23.59839045	     22.59755270	     -0.00000052	      0.00000000	     -0.00000071	      0.00000000
      2.52500000	     90.00000023	      0.00000039	     10.00000002	     -0.36446658	      0.37071071	      0.29080680	    -11.66167689	      4.93933593	     -4.93933593	     11.66167689	     -2.36125235	     19.08281093	      8.57759218	     -8.57759218	    -19.08281093	      2.36125235	     71.20736129	     48.18863946	    -71.20736129	      6.81134539	     23.38427589	     21.24197643	     -0.00000052	      0.00000000	     -0.00000071	      0.00000000
      2.53000000	     90.00000023	      0.00000039	     10.00000002	     -0.36459506	      0.37075259	      0.29082924	    -11.65146539	      4.93501082	     -4.93501082	     11.65146539	     -2.35918473	     19.06610115	      8.57008125	     -8.57008125	    -19.06610115	      2.35918473	     71.13254369	     48.14644328	    -71.13254369	      6.69183408	     23.54486372	     21.88630924	     -0.00000052	      0.00000000	     -0.00000071	      0.00000000
      2.53500000	     90.00000023	      0.00000039	     10.00000002	     -0.36456169	      0.37048144	      0.29082022	    -11.63552188	      4.92825790	     -4.92825790	     11.63552188	     -2.35595650	     19.04001167	      8.55835421	     -8.55835421	    -19.04001167	      2.35595650	     71.12916895	     48.08056114	    -71.12916895	      6.58424935	     23.72090222	     22.15677037	     -0.00000052	      0.00000000	     -0.00000071	      0.00000000
      2.54000000	     90.00000023	      0.00000039	     10.00000002	     -0.36456585	      0.37049354	      0.29071492	    -11.63508091	      4.92807113	     -4.92807113	     11.63508091	     -2.35586721	     19.03929008	      8.55802986	     -8.55802986	    -19.03929008	      2.35586721	     71.09482483	     48.07873897	    -71.09482483	      6.98272536	     23.64790061	     21.00648862	     -0.00000052	      0.00000000	     -0.00000071	      0.00000000
      2.54500000	     90.00000023	      0.00000039	     10.00000002	     -0.36460640	      0.37055808	      0.29080345	    -11.62127689	      4.92222439	     -4.92222439	     11.62127689	     -2.35307217	     19.01670161	      8.54787649	     -8.54787649	    -19.01670161	      2.35307217	     71.05829496	     48.02169768	    -71.05829496	      6.69540211	     23.86205721	     21.86718577	     -0.00000052	      0.00000000	     -0.00000071	      0.00000000
